<svg xmlns="http://www.w3.org/2000/svg" xmlns:xlink="http://www.w3.org/1999/xlink" width="500" zoomAndPan="magnify" viewBox="0 0 375 374.999991" height="500" preserveAspectRatio="xMidYMid meet" version="1.0"><defs><clipPath id="a26846896d"><path d="M 4.851562 4.851562 L 370.101562 4.851562 L 370.101562 370.101562 L 4.851562 370.101562 Z M 4.851562 4.851562 " clip-rule="nonzero"/></clipPath></defs><rect x="-37.5" width="450" fill="#ffffff" y="-37.499999" height="449.999989" fill-opacity="1"/><rect x="-37.5" width="450" fill="#ffffff" y="-37.499999" height="449.999989" fill-opacity="1"/><rect x="-37.5" width="450" fill="#ffffff" y="-37.499999" height="449.999989" fill-opacity="1"/><g clip-path="url(#a26846896d)"><path fill="#004aad" d="M 370.101562 187.476562 C 370.101562 190.464844 370.027344 193.449219 369.878906 196.4375 C 369.734375 199.421875 369.511719 202.402344 369.21875 205.375 C 368.925781 208.347656 368.5625 211.316406 368.121094 214.269531 C 367.683594 217.226562 367.171875 220.171875 366.589844 223.101562 C 366.007812 226.035156 365.351562 228.949219 364.625 231.847656 C 363.898438 234.75 363.101562 237.628906 362.234375 240.488281 C 361.367188 243.347656 360.429688 246.183594 359.425781 249 C 358.417969 251.8125 357.34375 254.601562 356.199219 257.363281 C 355.054688 260.125 353.84375 262.855469 352.566406 265.558594 C 351.289062 268.257812 349.945312 270.925781 348.535156 273.5625 C 347.125 276.199219 345.652344 278.800781 344.117188 281.363281 C 342.582031 283.925781 340.980469 286.449219 339.320312 288.9375 C 337.660156 291.421875 335.941406 293.863281 334.160156 296.265625 C 332.378906 298.664062 330.542969 301.019531 328.644531 303.332031 C 326.75 305.640625 324.796875 307.902344 322.789062 310.117188 C 320.785156 312.332031 318.722656 314.496094 316.609375 316.609375 C 314.496094 318.722656 312.332031 320.785156 310.117188 322.789062 C 307.902344 324.796875 305.640625 326.75 303.332031 328.644531 C 301.019531 330.542969 298.664062 332.378906 296.265625 334.160156 C 293.863281 335.941406 291.421875 337.660156 288.9375 339.320312 C 286.449219 340.980469 283.925781 342.582031 281.363281 344.117188 C 278.800781 345.652344 276.199219 347.125 273.5625 348.535156 C 270.925781 349.945312 268.257812 351.289062 265.558594 352.566406 C 262.855469 353.84375 260.125 355.054688 257.363281 356.199219 C 254.601562 357.34375 251.8125 358.417969 249 359.425781 C 246.183594 360.429688 243.347656 361.367188 240.488281 362.234375 C 237.628906 363.101562 234.75 363.898438 231.847656 364.625 C 228.949219 365.351562 226.035156 366.007812 223.101562 366.589844 C 220.171875 367.171875 217.226562 367.683594 214.269531 368.121094 C 211.316406 368.5625 208.347656 368.925781 205.375 369.21875 C 202.402344 369.511719 199.421875 369.734375 196.4375 369.878906 C 193.449219 370.027344 190.464844 370.101562 187.476562 370.101562 C 184.484375 370.101562 181.5 370.027344 178.515625 369.878906 C 175.527344 369.734375 172.546875 369.511719 169.574219 369.21875 C 166.601562 368.925781 163.632812 368.5625 160.679688 368.121094 C 157.722656 367.683594 154.777344 367.171875 151.847656 366.589844 C 148.914062 366.007812 146 365.351562 143.101562 364.625 C 140.203125 363.898438 137.320312 363.101562 134.460938 362.234375 C 131.601562 361.367188 128.765625 360.429688 125.949219 359.425781 C 123.136719 358.417969 120.347656 357.34375 117.585938 356.199219 C 114.824219 355.054688 112.09375 353.84375 109.390625 352.566406 C 106.691406 351.289062 104.023438 349.945312 101.386719 348.535156 C 98.75 347.125 96.148438 345.652344 93.585938 344.117188 C 91.023438 342.582031 88.5 340.980469 86.011719 339.320312 C 83.527344 337.660156 81.085938 335.941406 78.683594 334.160156 C 76.285156 332.378906 73.929688 330.542969 71.617188 328.644531 C 69.308594 326.75 67.046875 324.796875 64.832031 322.789062 C 62.617188 320.785156 60.453125 318.722656 58.339844 316.609375 C 56.226562 314.496094 54.164062 312.332031 52.160156 310.117188 C 50.152344 307.902344 48.199219 305.640625 46.304688 303.332031 C 44.40625 301.019531 42.570312 298.664062 40.789062 296.265625 C 39.007812 293.863281 37.289062 291.421875 35.628906 288.9375 C 33.96875 286.449219 32.367188 283.925781 30.832031 281.363281 C 29.296875 278.800781 27.824219 276.199219 26.414062 273.5625 C 25.003906 270.925781 23.660156 268.257812 22.382812 265.558594 C 21.105469 262.855469 19.894531 260.125 18.75 257.363281 C 17.605469 254.601562 16.53125 251.8125 15.523438 249 C 14.519531 246.183594 13.582031 243.347656 12.714844 240.488281 C 11.847656 237.628906 11.050781 234.75 10.324219 231.847656 C 9.597656 228.949219 8.941406 226.035156 8.359375 223.101562 C 7.777344 220.171875 7.265625 217.226562 6.828125 214.269531 C 6.386719 211.316406 6.023438 208.347656 5.730469 205.375 C 5.4375 202.402344 5.214844 199.421875 5.070312 196.4375 C 4.921875 193.449219 4.851562 190.464844 4.851562 187.476562 C 4.851562 184.484375 4.921875 181.5 5.070312 178.515625 C 5.214844 175.527344 5.4375 172.546875 5.730469 169.574219 C 6.023438 166.601562 6.386719 163.632812 6.828125 160.679688 C 7.265625 157.722656 7.777344 154.777344 8.359375 151.847656 C 8.941406 148.914062 9.597656 146 10.324219 143.101562 C 11.050781 140.199219 11.847656 137.320312 12.714844 134.460938 C 13.582031 131.601562 14.519531 128.765625 15.523438 125.949219 C 16.53125 123.136719 17.605469 120.347656 18.75 117.585938 C 19.894531 114.824219 21.105469 112.09375 22.382812 109.390625 C 23.660156 106.691406 25.003906 104.023438 26.414062 101.386719 C 27.824219 98.75 29.296875 96.148438 30.832031 93.585938 C 32.367188 91.023438 33.96875 88.5 35.628906 86.011719 C 37.289062 83.527344 39.007812 81.085938 40.789062 78.683594 C 42.570312 76.285156 44.40625 73.929688 46.304688 71.617188 C 48.199219 69.308594 50.152344 67.046875 52.160156 64.832031 C 54.164062 62.617188 56.226562 60.453125 58.339844 58.339844 C 60.453125 56.226562 62.617188 54.164062 64.832031 52.160156 C 67.046875 50.152344 69.308594 48.199219 71.617188 46.304688 C 73.929688 44.40625 76.285156 42.570312 78.683594 40.789062 C 81.085938 39.007812 83.527344 37.289062 86.011719 35.628906 C 88.5 33.96875 91.023438 32.367188 93.585938 30.832031 C 96.148438 29.296875 98.75 27.824219 101.386719 26.414062 C 104.023438 25.003906 106.691406 23.660156 109.390625 22.382812 C 112.09375 21.105469 114.824219 19.894531 117.585938 18.75 C 120.347656 17.605469 123.136719 16.53125 125.949219 15.523438 C 128.765625 14.519531 131.601562 13.582031 134.460938 12.714844 C 137.320312 11.847656 140.203125 11.050781 143.101562 10.324219 C 146 9.597656 148.914062 8.941406 151.847656 8.359375 C 154.777344 7.777344 157.722656 7.265625 160.679688 6.828125 C 163.632812 6.386719 166.601562 6.023438 169.574219 5.730469 C 172.546875 5.4375 175.527344 5.214844 178.515625 5.070312 C 181.5 4.921875 184.484375 4.851562 187.476562 4.851562 C 190.464844 4.851562 193.449219 4.921875 196.4375 5.070312 C 199.421875 5.214844 202.402344 5.4375 205.375 5.730469 C 208.347656 6.023438 211.316406 6.386719 214.269531 6.828125 C 217.226562 7.265625 220.171875 7.777344 223.101562 8.359375 C 226.035156 8.941406 228.949219 9.597656 231.847656 10.324219 C 234.75 11.050781 237.628906 11.847656 240.488281 12.714844 C 243.347656 13.582031 246.183594 14.519531 249 15.523438 C 251.8125 16.53125 254.601562 17.605469 257.363281 18.75 C 260.125 19.894531 262.855469 21.105469 265.558594 22.382812 C 268.257812 23.660156 270.925781 25.003906 273.5625 26.414062 C 276.199219 27.824219 278.800781 29.296875 281.363281 30.832031 C 283.925781 32.367188 286.449219 33.96875 288.9375 35.628906 C 291.421875 37.289062 293.863281 39.007812 296.265625 40.789062 C 298.664062 42.570312 301.019531 44.40625 303.332031 46.304688 C 305.640625 48.199219 307.902344 50.152344 310.117188 52.160156 C 312.332031 54.164062 314.496094 56.226562 316.609375 58.339844 C 318.722656 60.453125 320.785156 62.617188 322.789062 64.832031 C 324.796875 67.046875 326.75 69.308594 328.644531 71.617188 C 330.542969 73.929688 332.378906 76.285156 334.160156 78.683594 C 335.941406 81.085938 337.660156 83.527344 339.320312 86.011719 C 340.980469 88.5 342.582031 91.023438 344.117188 93.585938 C 345.652344 96.148438 347.125 98.75 348.535156 101.386719 C 349.945312 104.023438 351.289062 106.691406 352.566406 109.390625 C 353.84375 112.09375 355.054688 114.824219 356.199219 117.585938 C 357.34375 120.347656 358.417969 123.136719 359.425781 125.949219 C 360.429688 128.765625 361.367188 131.601562 362.234375 134.460938 C 363.101562 137.320312 363.898438 140.199219 364.625 143.101562 C 365.351562 146 366.007812 148.914062 366.589844 151.847656 C 367.171875 154.777344 367.683594 157.722656 368.121094 160.679688 C 368.5625 163.632812 368.925781 166.601562 369.21875 169.574219 C 369.511719 172.546875 369.734375 175.527344 369.878906 178.515625 C 370.027344 181.5 370.101562 184.484375 370.101562 187.476562 Z M 370.101562 187.476562 " fill-opacity="1" fill-rule="nonzero"/></g><path fill="#fefefe" d="M 262.414062 268.992188 L 185.417969 268.992188 C 178.433594 268.992188 172.679688 263.238281 172.679688 256.25 C 172.679688 249.261719 178.433594 243.507812 185.417969 243.507812 L 262.414062 243.507812 C 269.402344 243.507812 275.15625 249.261719 275.15625 256.25 C 275.15625 263.238281 269.402344 268.992188 262.414062 268.992188 Z M 277.484375 304.339844 L 97.601562 304.339844 C 82.804688 304.339844 70.609375 292.144531 70.609375 277.347656 L 70.609375 97.738281 C 70.609375 82.804688 82.804688 70.75 97.601562 70.75 L 277.484375 70.75 C 292.28125 70.75 304.476562 82.804688 304.476562 97.738281 L 304.476562 277.484375 C 304.203125 292.417969 292.28125 304.339844 277.484375 304.339844 Z M 97.601562 79.105469 C 87.324219 79.105469 78.96875 87.460938 78.96875 97.738281 L 78.96875 277.484375 C 78.96875 287.761719 87.324219 296.117188 97.601562 296.117188 L 277.484375 296.117188 C 287.761719 296.117188 296.117188 287.761719 296.117188 277.484375 L 296.117188 97.738281 C 296.117188 87.460938 287.761719 79.105469 277.484375 79.105469 Z M 185.417969 251.730469 C 179.390625 251.730469 179.390625 260.769531 185.417969 260.769531 L 262.414062 260.769531 C 268.445312 260.769531 268.445312 251.730469 262.414062 251.730469 Z M 112.671875 268.992188 C 101.164062 268.992188 95.546875 255.015625 103.492188 247.070312 L 163.226562 187.613281 L 103.492188 128.152344 C 95.273438 119.933594 101.300781 106.09375 112.671875 106.09375 C 116.097656 106.09375 119.246094 107.328125 121.714844 109.929688 L 190.351562 178.433594 C 195.421875 183.5 195.421875 191.722656 190.351562 196.789062 L 121.714844 265.429688 C 119.246094 267.621094 116.097656 268.992188 112.671875 268.992188 Z M 112.671875 114.453125 C 108.5625 114.453125 106.507812 119.382812 109.382812 122.261719 L 171.992188 184.734375 C 173.5 186.242188 173.5 188.980469 171.992188 190.625 L 109.382812 253.234375 C 105.136719 257.484375 111.574219 263.921875 115.820312 259.675781 L 184.460938 191.035156 C 186.242188 189.253906 186.242188 186.378906 184.460938 184.597656 L 115.820312 115.820312 C 114.863281 115 113.765625 114.453125 112.671875 114.453125 Z M 112.671875 114.453125 " fill-opacity="1" fill-rule="evenodd"/></svg>